<svg xmlns="http://www.w3.org/2000/svg" width="32" height="32" viewBox="0 0 32 32">
    <defs>
        <linearGradient id="prefix__a" x1="0%" x2="102%" y1="5.401%" y2="95.491%">
            <stop offset="0%" stop-color="#EB5757"/>
            <stop offset="100%" stop-color="#904E95"/>
        </linearGradient>
    </defs>
    <g fill="none">
        <path fill="#FFF" d="M0 16C0 7.163 7.163 0 16 0s16 7.163 16 16-7.163 16-16 16S0 24.837 0 16z"/>
        <path fill="url(#prefix__a)" d="M11.375 13.675V24.47h-3.63V13.675h3.63zm.24-3.34c0 1.037-.79 1.866-2.055 1.866h-.023c-1.22 0-2.008-.83-2.008-1.866 0-1.058.813-1.864 2.055-1.864 1.242 0 2.007.806 2.03 1.864zM24.47 18.28v6.19h-3.632v-5.775c0-1.451-.525-2.44-1.84-2.44-1.003 0-1.6.666-1.863 1.311-.096.231-.12.553-.12.875v6.03h-3.63s.047-9.783 0-10.796h3.63v1.53c.483-.736 1.346-1.784 3.274-1.784 2.39 0 4.18 1.544 4.18 4.86z"/>
    </g>
</svg>
