<svg xmlns="http://www.w3.org/2000/svg" xmlns:xlink="http://www.w3.org/1999/xlink" width="32" height="32" viewBox="0 0 32 32">
    <defs>
        <linearGradient id="prefix__b" x1="0%" x2="102%" y1="0%" y2="101%">
            <stop offset="0%" stop-color="#EB5757"/>
            <stop offset="100%" stop-color="#904E95"/>
        </linearGradient>
        <path id="prefix__a" d="M0 16C0 7.163 7.163 0 16 0s16 7.163 16 16-7.163 16-16 16S0 24.837 0 16z"/>
    </defs>
    <g fill="none" fill-rule="evenodd">
        <mask id="prefix__c" fill="#fff">
            <use xlink:href="#prefix__a"/>
        </mask>
        <use fill="#FFF" xlink:href="#prefix__a"/>
        <path fill="url(#prefix__b)" d="M16.5 8c-2.308 0-2.597.01-3.504.051-.905.042-1.523.185-2.063.395-.56.217-1.033.508-1.506.98-.473.473-.763.947-.98 1.506-.212.54-.355 1.158-.396 2.063C8.011 13.902 8 14.192 8 16.5s.01 2.597.051 3.504c.042.905.185 1.523.395 2.063.218.559.508 1.033.98 1.506.473.473.947.764 1.506.98.54.21 1.158.354 2.063.396.907.04 1.196.051 3.505.051 2.308 0 2.597-.01 3.504-.051.905-.042 1.523-.185 2.064-.395.559-.217 1.032-.508 1.505-.981.473-.473.763-.947.98-1.506.21-.54.353-1.158.396-2.063.04-.907.051-1.196.051-3.504s-.01-2.598-.051-3.505c-.043-.905-.186-1.522-.395-2.063-.218-.559-.508-1.033-.981-1.506-.473-.472-.946-.763-1.506-.98-.541-.21-1.16-.353-2.064-.395-.907-.04-1.196-.051-3.505-.051h.003zm-.762 1.532h.763c2.27 0 2.538.008 3.435.049.828.038 1.278.176 1.578.292.396.154.68.339.977.636.297.298.481.58.636.978.116.299.255.749.292 1.577.041.896.05 1.166.05 3.434 0 2.268-.009 2.538-.05 3.434-.038.828-.176 1.278-.292 1.578-.154.396-.339.679-.636.976-.298.297-.58.482-.977.636-.3.117-.75.255-1.578.293-.897.04-1.166.05-3.435.05-2.27 0-2.539-.01-3.435-.05-.829-.039-1.279-.177-1.578-.293-.397-.155-.68-.339-.978-.636-.297-.298-.481-.58-.636-.977-.116-.3-.255-.75-.293-1.578-.04-.896-.049-1.165-.049-3.435s.009-2.538.05-3.434c.037-.828.176-1.278.292-1.578.154-.397.339-.68.636-.977.298-.298.581-.482.978-.636.3-.117.75-.255 1.578-.294.784-.035 1.088-.046 2.672-.047v.002zm5.3 1.411c-.563 0-1.02.456-1.02 1.02 0 .563.457 1.02 1.02 1.02s1.02-.457 1.02-1.02-.457-1.02-1.02-1.02zm-4.537 1.192c-2.41 0-4.365 1.954-4.365 4.365 0 2.41 1.954 4.364 4.365 4.364 2.41 0 4.364-1.953 4.364-4.364 0-2.41-1.954-4.365-4.364-4.365zm0 1.532c1.565 0 2.833 1.268 2.833 2.833 0 1.565-1.268 2.833-2.833 2.833-1.565 0-2.834-1.268-2.834-2.833 0-1.565 1.269-2.833 2.834-2.833z" mask="url(#prefix__c)"/>
    </g>
</svg>
